<mxfile host="app.diagrams.net" modified="2024-07-24T12:41:43.488Z" agent="Mozilla/5.0 (X11; Linux x86_64) AppleWebKit/537.36 (KHTML, like Gecko) Chrome/124.0.0.0 Safari/537.36" etag="9bMEkSjaQVyJdH94a-VB" version="24.7.2" type="github">
  <diagram name="Page-1" id="Uqhc9oHz3xG9xJQomEFz">
    <mxGraphModel dx="3217" dy="1310" grid="1" gridSize="10" guides="1" tooltips="1" connect="1" arrows="1" fold="1" page="1" pageScale="1" pageWidth="827" pageHeight="1169" math="0" shadow="0">
      <root>
        <mxCell id="0" />
        <mxCell id="1" parent="0" />
        <mxCell id="b1tscxGiSgR5J6_G21sN-1" value="&amp;nbsp;Licensed Surveyor or District Surveyor" style="swimlane;horizontal=0;whiteSpace=wrap;html=1;" parent="1" vertex="1">
          <mxGeometry x="-200" y="20" width="2280" height="810" as="geometry" />
        </mxCell>
        <mxCell id="SUeWbOBw-LOc_Q-gGa7Z-14" value="" style="edgeStyle=orthogonalEdgeStyle;rounded=0;orthogonalLoop=1;jettySize=auto;html=1;" edge="1" parent="b1tscxGiSgR5J6_G21sN-1" source="b1tscxGiSgR5J6_G21sN-2" target="b1tscxGiSgR5J6_G21sN-6">
          <mxGeometry relative="1" as="geometry" />
        </mxCell>
        <mxCell id="b1tscxGiSgR5J6_G21sN-2" value="Start" style="ellipse;whiteSpace=wrap;html=1;aspect=fixed;" parent="b1tscxGiSgR5J6_G21sN-1" vertex="1">
          <mxGeometry x="40" y="110" width="60" height="60" as="geometry" />
        </mxCell>
        <mxCell id="SUeWbOBw-LOc_Q-gGa7Z-15" value="" style="edgeStyle=orthogonalEdgeStyle;rounded=0;orthogonalLoop=1;jettySize=auto;html=1;" edge="1" parent="b1tscxGiSgR5J6_G21sN-1" source="b1tscxGiSgR5J6_G21sN-6" target="b1tscxGiSgR5J6_G21sN-7">
          <mxGeometry relative="1" as="geometry" />
        </mxCell>
        <mxCell id="b1tscxGiSgR5J6_G21sN-6" value="&lt;ul&gt;&lt;li&gt;Ownership details- Ardhisasa ID&lt;/li&gt;&lt;li&gt;Parcel details- Parcel Number(s), Area.&lt;/li&gt;&lt;li&gt;Mutation Details- Serial Number.&lt;/li&gt;&lt;li&gt;Instructions of Registered Proprietor(s) to the Surveyor.&lt;/li&gt;&lt;/ul&gt;" style="shape=note;whiteSpace=wrap;html=1;backgroundOutline=1;darkOpacity=0.05;align=left;" parent="b1tscxGiSgR5J6_G21sN-1" vertex="1">
          <mxGeometry x="240" y="95" width="250" height="90" as="geometry" />
        </mxCell>
        <mxCell id="SUeWbOBw-LOc_Q-gGa7Z-25" value="" style="edgeStyle=orthogonalEdgeStyle;rounded=0;orthogonalLoop=1;jettySize=auto;html=1;entryX=0.5;entryY=0;entryDx=0;entryDy=0;" edge="1" parent="b1tscxGiSgR5J6_G21sN-1" source="b1tscxGiSgR5J6_G21sN-7" target="b1tscxGiSgR5J6_G21sN-18">
          <mxGeometry relative="1" as="geometry">
            <mxPoint x="820" y="530" as="targetPoint" />
          </mxGeometry>
        </mxCell>
        <mxCell id="b1tscxGiSgR5J6_G21sN-7" value="&lt;div&gt;&lt;u&gt;Upload Documents Required&lt;/u&gt;&lt;/div&gt;&lt;div&gt;&lt;ul&gt;&lt;li&gt;Land Control Board consent letter.&lt;/li&gt;&lt;li&gt;A scheme Plan.&lt;/li&gt;&lt;li&gt;Land Control Board Application form&lt;/li&gt;&lt;li&gt;A copy of the RIM.&lt;/li&gt;&lt;li&gt;Final Coordinates.&lt;/li&gt;&lt;li&gt;Forwarding Letter.&lt;/li&gt;&lt;li&gt;confirmation of grant- For Succcession.&lt;/li&gt;&lt;li&gt;copy of the Title.&lt;/li&gt;&lt;li&gt;The filled Mutation Form.&lt;/li&gt;&lt;li&gt;Working Diagram.&lt;/li&gt;&lt;li&gt;Survey Plan Polygon.&lt;/li&gt;&lt;li&gt;Calibration Certificate.&lt;/li&gt;&lt;li&gt;Any other relevant document&lt;/li&gt;&lt;/ul&gt;&lt;/div&gt;" style="whiteSpace=wrap;html=1;align=left;" parent="b1tscxGiSgR5J6_G21sN-1" vertex="1">
          <mxGeometry x="690" y="30" width="260" height="220" as="geometry" />
        </mxCell>
        <mxCell id="b1tscxGiSgR5J6_G21sN-86" value="&lt;ul&gt;&lt;li&gt;2 Approved Mutations&lt;/li&gt;&lt;li&gt;Original&amp;nbsp; application.&lt;/li&gt;&lt;li&gt;Ammended RIM.&lt;/li&gt;&lt;li&gt;Survey plan&lt;/li&gt;&lt;/ul&gt;" style="shape=note;whiteSpace=wrap;html=1;backgroundOutline=1;darkOpacity=0.05;align=left;" parent="b1tscxGiSgR5J6_G21sN-1" vertex="1">
          <mxGeometry x="2068" y="50" width="200" height="90" as="geometry" />
        </mxCell>
        <mxCell id="SUeWbOBw-LOc_Q-gGa7Z-43" value="" style="edgeStyle=orthogonalEdgeStyle;rounded=0;orthogonalLoop=1;jettySize=auto;html=1;entryX=0.5;entryY=1;entryDx=0;entryDy=0;entryPerimeter=0;exitX=0.5;exitY=0;exitDx=0;exitDy=0;" edge="1" parent="b1tscxGiSgR5J6_G21sN-1" source="SUeWbOBw-LOc_Q-gGa7Z-37" target="SUeWbOBw-LOc_Q-gGa7Z-45">
          <mxGeometry relative="1" as="geometry">
            <mxPoint x="1465" y="150" as="targetPoint" />
          </mxGeometry>
        </mxCell>
        <mxCell id="SUeWbOBw-LOc_Q-gGa7Z-46" value="False" style="edgeLabel;html=1;align=center;verticalAlign=middle;resizable=0;points=[];" vertex="1" connectable="0" parent="SUeWbOBw-LOc_Q-gGa7Z-43">
          <mxGeometry x="0.1062" y="2" relative="1" as="geometry">
            <mxPoint as="offset" />
          </mxGeometry>
        </mxCell>
        <mxCell id="SUeWbOBw-LOc_Q-gGa7Z-37" value="&lt;span style=&quot;white-space: pre;&quot;&gt;&#x9;&lt;/span&gt;Pays Invoices/&amp;nbsp;&lt;div&gt;&lt;br&gt;&lt;/div&gt;&lt;div&gt;Downloads&amp;nbsp;&lt;span style=&quot;background-color: initial;&quot;&gt;the&amp;nbsp;&lt;/span&gt;&lt;span style=&quot;background-color: initial;&quot;&gt;Gate pass&lt;/span&gt;&lt;/div&gt;" style="rhombus;whiteSpace=wrap;html=1;" vertex="1" parent="b1tscxGiSgR5J6_G21sN-1">
          <mxGeometry x="1155" y="204" width="180" height="160" as="geometry" />
        </mxCell>
        <mxCell id="SUeWbOBw-LOc_Q-gGa7Z-45" value="" style="points=[[0.145,0.145,0],[0.5,0,0],[0.855,0.145,0],[1,0.5,0],[0.855,0.855,0],[0.5,1,0],[0.145,0.855,0],[0,0.5,0]];shape=mxgraph.bpmn.event;html=1;verticalLabelPosition=bottom;labelBackgroundColor=#ffffff;verticalAlign=top;align=center;perimeter=ellipsePerimeter;outlineConnect=0;aspect=fixed;outline=end;symbol=terminate;" vertex="1" parent="b1tscxGiSgR5J6_G21sN-1">
          <mxGeometry x="1222" y="70" width="50" height="50" as="geometry" />
        </mxCell>
        <mxCell id="b1tscxGiSgR5J6_G21sN-15" value="System" style="swimlane;horizontal=0;whiteSpace=wrap;html=1;startSize=23;" parent="b1tscxGiSgR5J6_G21sN-1" vertex="1">
          <mxGeometry y="620" width="2280" height="190" as="geometry" />
        </mxCell>
        <mxCell id="SUeWbOBw-LOc_Q-gGa7Z-27" value="" style="edgeStyle=orthogonalEdgeStyle;rounded=0;orthogonalLoop=1;jettySize=auto;html=1;" edge="1" parent="b1tscxGiSgR5J6_G21sN-15" source="b1tscxGiSgR5J6_G21sN-18">
          <mxGeometry relative="1" as="geometry">
            <mxPoint x="1130" y="100" as="targetPoint" />
          </mxGeometry>
        </mxCell>
        <mxCell id="SUeWbOBw-LOc_Q-gGa7Z-30" value="True" style="edgeLabel;html=1;align=center;verticalAlign=middle;resizable=0;points=[];" vertex="1" connectable="0" parent="SUeWbOBw-LOc_Q-gGa7Z-27">
          <mxGeometry x="0.0486" y="-1" relative="1" as="geometry">
            <mxPoint as="offset" />
          </mxGeometry>
        </mxCell>
        <mxCell id="b1tscxGiSgR5J6_G21sN-18" value="Validates" style="rhombus;whiteSpace=wrap;html=1;" parent="b1tscxGiSgR5J6_G21sN-15" vertex="1">
          <mxGeometry x="780" y="60" width="80" height="80" as="geometry" />
        </mxCell>
        <mxCell id="SUeWbOBw-LOc_Q-gGa7Z-23" value="&lt;ul&gt;&lt;li&gt;Generates a ticket- To surrender the Original copy of Mutation Form.&lt;/li&gt;&lt;li&gt;Generate RIM Amendment invoice.&lt;/li&gt;&lt;li&gt;Generate Map Print Invoice.&lt;/li&gt;&lt;li&gt;Generate Survey Fees Invoice&lt;/li&gt;&lt;/ul&gt;" style="rounded=0;whiteSpace=wrap;html=1;align=left;" vertex="1" parent="b1tscxGiSgR5J6_G21sN-15">
          <mxGeometry x="1130" y="50" width="230" height="100" as="geometry" />
        </mxCell>
        <mxCell id="SUeWbOBw-LOc_Q-gGa7Z-41" value="" style="edgeStyle=orthogonalEdgeStyle;rounded=0;orthogonalLoop=1;jettySize=auto;html=1;entryX=0.5;entryY=1;entryDx=0;entryDy=0;" edge="1" parent="b1tscxGiSgR5J6_G21sN-1" source="SUeWbOBw-LOc_Q-gGa7Z-23" target="SUeWbOBw-LOc_Q-gGa7Z-37">
          <mxGeometry relative="1" as="geometry">
            <mxPoint x="1245" y="420" as="targetPoint" />
          </mxGeometry>
        </mxCell>
        <mxCell id="SUeWbOBw-LOc_Q-gGa7Z-32" value="" style="edgeStyle=orthogonalEdgeStyle;rounded=0;orthogonalLoop=1;jettySize=auto;html=1;entryX=0.5;entryY=1;entryDx=0;entryDy=0;entryPerimeter=0;" edge="1" parent="b1tscxGiSgR5J6_G21sN-1" source="b1tscxGiSgR5J6_G21sN-18" target="b1tscxGiSgR5J6_G21sN-6">
          <mxGeometry relative="1" as="geometry">
            <mxPoint x="360" y="350" as="targetPoint" />
          </mxGeometry>
        </mxCell>
        <mxCell id="SUeWbOBw-LOc_Q-gGa7Z-34" value="False" style="edgeLabel;html=1;align=center;verticalAlign=middle;resizable=0;points=[];" vertex="1" connectable="0" parent="SUeWbOBw-LOc_Q-gGa7Z-32">
          <mxGeometry x="-0.5389" y="-5" relative="1" as="geometry">
            <mxPoint as="offset" />
          </mxGeometry>
        </mxCell>
        <mxCell id="b1tscxGiSgR5J6_G21sN-53" value="District Surveyor" style="swimlane;horizontal=0;whiteSpace=wrap;html=1;" parent="1" vertex="1">
          <mxGeometry x="-200" y="1090" width="2280" height="300" as="geometry" />
        </mxCell>
        <mxCell id="b1tscxGiSgR5J6_G21sN-54" value="&lt;ul&gt;&lt;li&gt;Validates all submitted documents.&lt;/li&gt;&lt;li&gt;can either Foward/ Reject/ Return&lt;/li&gt;&lt;/ul&gt;" style="rounded=0;whiteSpace=wrap;html=1;align=left;" parent="b1tscxGiSgR5J6_G21sN-53" vertex="1">
          <mxGeometry x="1420" y="94" width="230" height="60" as="geometry" />
        </mxCell>
        <mxCell id="SUeWbOBw-LOc_Q-gGa7Z-76" value="" style="edgeStyle=orthogonalEdgeStyle;rounded=0;orthogonalLoop=1;jettySize=auto;html=1;" edge="1" parent="b1tscxGiSgR5J6_G21sN-53" source="SUeWbOBw-LOc_Q-gGa7Z-4">
          <mxGeometry relative="1" as="geometry">
            <mxPoint x="1920" y="870" as="targetPoint" />
          </mxGeometry>
        </mxCell>
        <mxCell id="SUeWbOBw-LOc_Q-gGa7Z-4" value="&lt;ul&gt;&lt;li&gt;Receives the Application for Approval.&lt;/li&gt;&lt;li&gt;Can return to Cartographer&lt;/li&gt;&lt;/ul&gt;" style="rounded=0;whiteSpace=wrap;html=1;align=left;" vertex="1" parent="b1tscxGiSgR5J6_G21sN-53">
          <mxGeometry x="1680" y="94" width="150" height="70" as="geometry" />
        </mxCell>
        <mxCell id="b1tscxGiSgR5J6_G21sN-56" value="Government Surveyor( Chief SRO)" style="swimlane;horizontal=0;whiteSpace=wrap;html=1;" parent="1" vertex="1">
          <mxGeometry x="-200" y="1390" width="2280" height="320" as="geometry" />
        </mxCell>
        <mxCell id="b1tscxGiSgR5J6_G21sN-59" value="&lt;ul&gt;&lt;li&gt;Verifies the authenticity of the submitted document.&lt;/li&gt;&lt;li&gt;Can either return to applicant or forward&lt;/li&gt;&lt;/ul&gt;" style="rounded=0;whiteSpace=wrap;html=1;align=left;" parent="b1tscxGiSgR5J6_G21sN-56" vertex="1">
          <mxGeometry x="1450" y="95" width="170" height="80" as="geometry" />
        </mxCell>
        <mxCell id="b1tscxGiSgR5J6_G21sN-67" value="Cartographer" style="swimlane;horizontal=0;whiteSpace=wrap;html=1;" parent="1" vertex="1">
          <mxGeometry x="-200" y="1710" width="2280" height="210" as="geometry" />
        </mxCell>
        <mxCell id="b1tscxGiSgR5J6_G21sN-68" value="&lt;ul&gt;&lt;li&gt;Checks for Overlaps.&lt;/li&gt;&lt;li&gt;Issues New parcel numbers.&lt;/li&gt;&lt;li&gt;Plots and Ammends the RIM ( Cadastre).&lt;/li&gt;&lt;li&gt;Plotting of Survey plan.&lt;/li&gt;&lt;/ul&gt;" style="rounded=0;whiteSpace=wrap;html=1;align=left;" parent="b1tscxGiSgR5J6_G21sN-67" vertex="1">
          <mxGeometry x="1425" y="100" width="220" height="70" as="geometry" />
        </mxCell>
        <mxCell id="b1tscxGiSgR5J6_G21sN-77" value="Records officer" style="swimlane;horizontal=0;whiteSpace=wrap;html=1;" parent="1" vertex="1">
          <mxGeometry x="-200" y="1920" width="2280" height="165" as="geometry" />
        </mxCell>
        <mxCell id="SUeWbOBw-LOc_Q-gGa7Z-83" value="" style="edgeStyle=orthogonalEdgeStyle;rounded=0;orthogonalLoop=1;jettySize=auto;html=1;" edge="1" parent="b1tscxGiSgR5J6_G21sN-77" source="b1tscxGiSgR5J6_G21sN-80">
          <mxGeometry relative="1" as="geometry">
            <mxPoint x="2200" y="-1760" as="targetPoint" />
          </mxGeometry>
        </mxCell>
        <mxCell id="b1tscxGiSgR5J6_G21sN-80" value="&lt;ul&gt;&lt;li&gt;After approval The documents are sent to the records officer&lt;/li&gt;&lt;/ul&gt;" style="rounded=0;whiteSpace=wrap;html=1;align=left;" parent="b1tscxGiSgR5J6_G21sN-77" vertex="1">
          <mxGeometry x="1800" y="40" width="240" height="90" as="geometry" />
        </mxCell>
        <mxCell id="SUeWbOBw-LOc_Q-gGa7Z-52" value="" style="edgeStyle=orthogonalEdgeStyle;rounded=0;orthogonalLoop=1;jettySize=auto;html=1;" edge="1" parent="1" source="SUeWbOBw-LOc_Q-gGa7Z-37" target="b1tscxGiSgR5J6_G21sN-64">
          <mxGeometry relative="1" as="geometry">
            <mxPoint x="1045" y="-40" as="targetPoint" />
          </mxGeometry>
        </mxCell>
        <mxCell id="b1tscxGiSgR5J6_G21sN-63" value="Customercare ( Survey)" style="swimlane;horizontal=0;whiteSpace=wrap;html=1;" parent="1" vertex="1">
          <mxGeometry x="-200" y="830" width="2280" height="260" as="geometry" />
        </mxCell>
        <mxCell id="b1tscxGiSgR5J6_G21sN-64" value="Receives the Surrendered Mutation form and closes the ticket." style="rounded=0;whiteSpace=wrap;html=1;" parent="b1tscxGiSgR5J6_G21sN-63" vertex="1">
          <mxGeometry x="1430" y="70" width="210" height="110" as="geometry" />
        </mxCell>
        <mxCell id="SUeWbOBw-LOc_Q-gGa7Z-56" value="" style="edgeStyle=orthogonalEdgeStyle;rounded=0;orthogonalLoop=1;jettySize=auto;html=1;entryX=0.5;entryY=0;entryDx=0;entryDy=0;" edge="1" parent="1" source="b1tscxGiSgR5J6_G21sN-64" target="b1tscxGiSgR5J6_G21sN-54">
          <mxGeometry relative="1" as="geometry">
            <mxPoint x="1335" y="1015" as="targetPoint" />
          </mxGeometry>
        </mxCell>
        <mxCell id="SUeWbOBw-LOc_Q-gGa7Z-84" value="once the ticket is closed, the application moves to the D.S" style="edgeLabel;html=1;align=center;verticalAlign=middle;resizable=0;points=[];" vertex="1" connectable="0" parent="SUeWbOBw-LOc_Q-gGa7Z-56">
          <mxGeometry x="-0.6935" y="5" relative="1" as="geometry">
            <mxPoint as="offset" />
          </mxGeometry>
        </mxCell>
        <mxCell id="SUeWbOBw-LOc_Q-gGa7Z-60" value="" style="edgeStyle=orthogonalEdgeStyle;rounded=0;orthogonalLoop=1;jettySize=auto;html=1;entryX=0.5;entryY=0;entryDx=0;entryDy=0;" edge="1" parent="1" source="b1tscxGiSgR5J6_G21sN-54" target="b1tscxGiSgR5J6_G21sN-59">
          <mxGeometry relative="1" as="geometry">
            <mxPoint x="1335" y="1309" as="targetPoint" />
          </mxGeometry>
        </mxCell>
        <mxCell id="SUeWbOBw-LOc_Q-gGa7Z-61" value="Forwards" style="edgeLabel;html=1;align=center;verticalAlign=middle;resizable=0;points=[];" vertex="1" connectable="0" parent="SUeWbOBw-LOc_Q-gGa7Z-60">
          <mxGeometry x="-0.0093" y="3" relative="1" as="geometry">
            <mxPoint y="-1" as="offset" />
          </mxGeometry>
        </mxCell>
        <mxCell id="SUeWbOBw-LOc_Q-gGa7Z-63" value="" style="edgeStyle=orthogonalEdgeStyle;rounded=0;orthogonalLoop=1;jettySize=auto;html=1;" edge="1" parent="1" source="b1tscxGiSgR5J6_G21sN-59" target="b1tscxGiSgR5J6_G21sN-68">
          <mxGeometry relative="1" as="geometry">
            <mxPoint x="1335" y="1650" as="targetPoint" />
          </mxGeometry>
        </mxCell>
        <mxCell id="SUeWbOBw-LOc_Q-gGa7Z-64" value="Forwards" style="edgeLabel;html=1;align=center;verticalAlign=middle;resizable=0;points=[];" vertex="1" connectable="0" parent="SUeWbOBw-LOc_Q-gGa7Z-63">
          <mxGeometry x="-0.0667" y="5" relative="1" as="geometry">
            <mxPoint as="offset" />
          </mxGeometry>
        </mxCell>
        <mxCell id="SUeWbOBw-LOc_Q-gGa7Z-67" value="" style="edgeStyle=orthogonalEdgeStyle;rounded=0;orthogonalLoop=1;jettySize=auto;html=1;entryX=0.5;entryY=1;entryDx=0;entryDy=0;" edge="1" parent="1" source="b1tscxGiSgR5J6_G21sN-68" target="SUeWbOBw-LOc_Q-gGa7Z-4">
          <mxGeometry relative="1" as="geometry">
            <mxPoint x="1575" y="1845" as="targetPoint" />
          </mxGeometry>
        </mxCell>
        <mxCell id="SUeWbOBw-LOc_Q-gGa7Z-68" value="Forwards" style="edgeLabel;html=1;align=center;verticalAlign=middle;resizable=0;points=[];" vertex="1" connectable="0" parent="SUeWbOBw-LOc_Q-gGa7Z-67">
          <mxGeometry x="-0.4029" y="-5" relative="1" as="geometry">
            <mxPoint as="offset" />
          </mxGeometry>
        </mxCell>
      </root>
    </mxGraphModel>
  </diagram>
</mxfile>
